# xmcd CD database file generated by freedbAccess_ocx
#
# Track frame offsets:
#       150
#       16838
#       29267
#       42777
#       58047
#       70540
#       84516
#       102172
#       114684
#       130193
#       144573
#       157580
#       168170
#       184036
#
# Disc length: 2670 seconds
#
# Revision: 0
# Processed by: cddbd v1.5PL3 Copyright (c) Steve Scherf et al.
# Submitted via: CDnGo 2.09
#
DISCID=a60a6c0e
DTITLE=Roto Noto Music - Taking Country To The Next Level
DYEAR=2002
DGENRE=country
TTITLE0=Hurt Before The Fall (Jessie Commisso)
TTITLE1=Wedding Rings (Lindsay Morgan)
TTITLE2=High And Lonesome (Mark LaForme)
TTITLE3=I'm Onto You (Shelley Buffitt)
TTITLE4=Bad News (Mary Livingston)
TTITLE5=Real Love (Sharon Westlake)
TTITLE6=You (Robert Maciag)
TTITLE7=Boy Next Door (Beth Profitt)
TTITLE8=Please Come Home (Roto Noto Band)
TTITLE9=It Ain't Easy (Lynne Wilson And The Rebels)
TTITLE10=Miss Behave (Randall Cousins)
TTITLE11=Anotehr State (Roe McCaw)
TTITLE12=God Made Me This Way (NSS)
TTITLE13=D.I.V.O.R.C.E. (Manon's Dream)
EXTD=
EXTT0=
EXTT1=
EXTT2=
EXTT3=
EXTT4=
EXTT5=
EXTT6=
EXTT7=
EXTT8=
EXTT9=
EXTT10=
EXTT11=
EXTT12=
EXTT13=
PLAYORDER=
